<svg width="17" height="16" viewBox="0 0 17 16" fill="none" xmlns="http://www.w3.org/2000/svg">
<path d="M2.65625 12.0385H0.53125C0.390354 12.0385 0.255228 12.0992 0.1556 12.2074C0.0559708 12.3156 0 12.4624 0 12.6154L0 14.9231C0 15.0761 0.0559708 15.2228 0.1556 15.331C0.255228 15.4392 0.390354 15.5 0.53125 15.5H2.65625C2.79715 15.5 2.93227 15.4392 3.0319 15.331C3.13153 15.2228 3.1875 15.0761 3.1875 14.9231V12.6154C3.1875 12.4624 3.13153 12.3156 3.0319 12.2074C2.93227 12.0992 2.79715 12.0385 2.65625 12.0385ZM2.65625 0.5H0.53125C0.390354 0.5 0.255228 0.560783 0.1556 0.668977C0.0559708 0.777171 0 0.923914 0 1.07692L0 3.38462C0 3.53762 0.0559708 3.68437 0.1556 3.79256C0.255228 3.90076 0.390354 3.96154 0.53125 3.96154H2.65625C2.79715 3.96154 2.93227 3.90076 3.0319 3.79256C3.13153 3.68437 3.1875 3.53762 3.1875 3.38462V1.07692C3.1875 0.923914 3.13153 0.777171 3.0319 0.668977C2.93227 0.560783 2.79715 0.5 2.65625 0.5ZM2.65625 6.26923H0.53125C0.390354 6.26923 0.255228 6.33001 0.1556 6.43821C0.0559708 6.5464 0 6.69314 0 6.84615L0 9.15385C0 9.30686 0.0559708 9.4536 0.1556 9.56179C0.255228 9.66999 0.390354 9.73077 0.53125 9.73077H2.65625C2.79715 9.73077 2.93227 9.66999 3.0319 9.56179C3.13153 9.4536 3.1875 9.30686 3.1875 9.15385V6.84615C3.1875 6.69314 3.13153 6.5464 3.0319 6.43821C2.93227 6.33001 2.79715 6.26923 2.65625 6.26923ZM16.4688 12.6154H5.84375C5.70285 12.6154 5.56773 12.6762 5.4681 12.7844C5.36847 12.8926 5.3125 13.0393 5.3125 13.1923V14.3462C5.3125 14.4992 5.36847 14.6459 5.4681 14.7541C5.56773 14.8623 5.70285 14.9231 5.84375 14.9231H16.4688C16.6096 14.9231 16.7448 14.8623 16.8444 14.7541C16.944 14.6459 17 14.4992 17 14.3462V13.1923C17 13.0393 16.944 12.8926 16.8444 12.7844C16.7448 12.6762 16.6096 12.6154 16.4688 12.6154ZM16.4688 1.07692H5.84375C5.70285 1.07692 5.56773 1.13771 5.4681 1.2459C5.36847 1.35409 5.3125 1.50084 5.3125 1.65385V2.80769C5.3125 2.9607 5.36847 3.10744 5.4681 3.21564C5.56773 3.32383 5.70285 3.38462 5.84375 3.38462H16.4688C16.6096 3.38462 16.7448 3.32383 16.8444 3.21564C16.944 3.10744 17 2.9607 17 2.80769V1.65385C17 1.50084 16.944 1.35409 16.8444 1.2459C16.7448 1.13771 16.6096 1.07692 16.4688 1.07692ZM16.4688 6.84615H5.84375C5.70285 6.84615 5.56773 6.90694 5.4681 7.01513C5.36847 7.12332 5.3125 7.27007 5.3125 7.42308V8.57692C5.3125 8.72993 5.36847 8.87668 5.4681 8.98487C5.56773 9.09306 5.70285 9.15385 5.84375 9.15385H16.4688C16.6096 9.15385 16.7448 9.09306 16.8444 8.98487C16.944 8.87668 17 8.72993 17 8.57692V7.42308C17 7.27007 16.944 7.12332 16.8444 7.01513C16.7448 6.90694 16.6096 6.84615 16.4688 6.84615Z" fill="black"/>
</svg>
